<?xml version="1.0" encoding="UTF-8"?>
<svg version="1.1" xmlns="http://www.w3.org/2000/svg" width="512" height="512">
<path d="M0 0 C0.89001709 0.00563965 1.78003418 0.0112793 2.69702148 0.01708984 C15.28058273 0.25018286 26.99426187 4.75718514 36.42578125 13.34375 C41.68255364 19.21828056 46.37393251 25.94415308 49.1875 33.3125 C50.13138077 33.31463753 50.13138077 33.31463753 51.09432983 33.31681824 C57.681649 33.33660254 64.26805238 33.3910627 70.85498047 33.46508789 C73.30868953 33.48819341 75.76249672 33.50264599 78.21630859 33.50805664 C81.75680167 33.51740021 85.29576697 33.5585127 88.8359375 33.60546875 C89.92176117 33.6015361 91.00758484 33.59760345 92.12631226 33.59355164 C100.23786632 33.74671168 107.06055414 35.51933387 113.16073608 41.12614441 C116.29436584 44.45121459 117.36786444 46.80704125 118.1875 51.3125 C119.41267334 51.29155273 120.63784668 51.27060547 121.90014648 51.24902344 C126.47912748 51.1762019 131.05805807 51.13054786 135.63745117 51.09277344 C137.6131249 51.07275354 139.58874009 51.04552908 141.56420898 51.01074219 C144.4166515 50.96179793 147.26830549 50.93943475 150.12109375 50.921875 C150.99334091 50.90122986 151.86558807 50.88058472 152.76426697 50.85931396 C160.26884888 50.8566154 166.23056362 52.8155315 172 57.6875 C180.13832414 67.45348897 180.4755657 75.265591 180.37939453 87.56616211 C180.37559195 89.01232179 180.37278542 90.45848438 180.37089539 91.90464783 C180.36546803 95.00883269 180.35450281 98.11293121 180.33963394 101.21708488 C180.31763133 106.13040038 180.31725685 111.04356995 180.32150269 115.95692444 C180.3226959 117.64226816 180.32386491 119.32761191 180.3250103 121.01295567 C180.32559055 121.85667103 180.3261708 122.70038639 180.32676864 123.56966889 C180.33278538 135.0002676 180.32038129 146.43060447 180.26660156 157.86108398 C180.23044195 165.58341696 180.22273572 173.3052209 180.24709976 181.02760702 C180.25876933 185.10938534 180.2557781 189.18997858 180.21759415 193.2716198 C180.18178436 197.1110927 180.18328312 200.94876956 180.21282387 204.78827858 C180.21703122 206.19271467 180.20768669 207.59727065 180.18339729 209.00150299 C179.94914739 216.86183506 179.94914739 216.86183506 182.95808029 223.88572884 C184.94008865 225.87503887 186.97377447 227.59121063 189.1875 229.3125 C194.47116477 235.69733074 198.03886119 242.6803156 201.1875 250.3125 C203.45433589 247.44912835 205.15803053 244.56338737 206.8125 241.3125 C217.27740217 221.88508261 233.46532483 206.17358759 253.1875 196.3125 C257.05964182 195.88226202 258.71246371 195.99580914 262 198.1875 C264.54080753 200.65571303 265.0870948 201.5761952 265.5625 205.0625 C265.06135046 209.40579604 263.39370255 211.53647976 260.1875 214.3125 C258.35248651 215.5700811 256.49571638 216.79617072 254.625 218 C247.7431502 222.43252148 241.99679963 227.58788403 236.1875 233.3125 C235.20136719 234.27929688 235.20136719 234.27929688 234.1953125 235.265625 C222.38894566 247.77928571 216.39646007 263.68425238 213.1875 280.3125 C213.92355469 279.89097656 214.65960938 279.46945312 215.41796875 279.03515625 C216.39378906 278.48730469 217.36960937 277.93945312 218.375 277.375 C219.81939453 276.55708984 219.81939453 276.55708984 221.29296875 275.72265625 C226.54227937 273.16529979 231.70392739 273.13029725 237.4609375 273.07421875 C238.26173737 273.066147 239.06253723 273.05807526 239.88760376 273.04975891 C241.58373887 273.03595773 243.27990129 273.02521792 244.97607422 273.01733398 C246.68253933 273.00589741 248.38897109 272.98558017 250.09521484 272.95581055 C271.52959044 272.58265812 289.90948048 277.5387199 306.1875 292.3125 C307.03054688 293.06273437 307.87359375 293.81296875 308.7421875 294.5859375 C315.29417194 300.73962502 319.90027495 307.43820075 324.1875 315.3125 C324.91259766 316.63701172 324.91259766 316.63701172 325.65234375 317.98828125 C334.09696049 334.90318227 333.82582471 352.84692604 333.70898438 371.26733398 C333.68625926 374.887932 333.69969029 378.50734973 333.72275066 382.1279068 C333.91666394 418.01667384 326.32976447 452.75527895 300.1875 479.3125 C297.60288154 481.7503934 294.91887271 484.04125101 292.1875 486.3125 C291.44757813 486.951875 290.70765625 487.59125 289.9453125 488.25 C265.41599238 508.8385441 237.80316407 513.01008415 206.7789917 512.64544678 C204.06180834 512.61806488 201.34471177 512.60960246 198.62741184 512.60188007 C195.3361968 512.59183526 192.04506819 512.57164129 188.75390625 512.55078125 C187.55472061 512.54339432 186.35553497 512.53600739 185.12001038 512.52839661 C178.82921429 512.45771226 172.65952909 512.16518636 166.40977478 511.42521667 C164.01295455 511.16852712 164.01295455 511.16852712 161.1875 512.3125 C159.4018512 512.40658071 157.61285776 512.44163038 155.82473373 512.44392776 C154.7049075 512.44776891 153.58508127 512.45161005 152.43132091 512.4555676 C150.57809934 512.45426787 150.57809934 512.45426787 148.68743896 512.45294189 C147.37899434 512.45591302 146.07054972 512.45888414 144.72245526 512.4619453 C141.08283849 512.47002434 137.44324144 512.47180537 133.80361676 512.47254276 C129.88120318 512.47439176 125.95879987 512.48193833 122.03639221 512.48867798 C113.45579641 512.50226843 104.87520527 512.50828718 96.29460049 512.51268864 C90.93807056 512.51544996 85.58154244 512.51968712 80.22501373 512.52419281 C65.39807117 512.5363866 50.57113006 512.54668557 35.74418259 512.5500679 C34.79494567 512.55028747 33.84570876 512.55050703 32.86770709 512.55073325 C31.44041841 512.55106067 31.44041841 512.55106067 29.98429561 512.5513947 C28.05609941 512.55183817 26.12790322 512.55228473 24.19970703 512.55273438 C23.24325237 512.5529558 22.2867977 512.55317723 21.30135956 512.55340537 C5.80276034 512.55735353 -9.69579186 512.57480758 -25.19437292 512.5980939 C-41.10168814 512.62180165 -57.00897976 512.6342695 -72.91631293 512.63543582 C-81.84963271 512.63635293 -90.78289124 512.64211414 -99.71619415 512.66025543 C-107.32316293 512.67564866 -114.93005154 512.6807815 -122.53703293 512.67251733 C-126.41839212 512.66860801 -130.29958982 512.66955408 -134.18092918 512.68357468 C-138.38890451 512.69863618 -142.59651524 512.69045545 -146.80450439 512.67999268 C-148.03106255 512.68804908 -149.2576207 512.69610548 -150.52134728 512.70440602 C-160.26437914 512.64760031 -165.85154482 510.72512807 -173.08203125 504.08203125 C-178.40787845 498.63596177 -178.93611115 493.59190665 -178.94951439 486.24209404 C-178.95216622 485.52629256 -178.95481804 484.81049108 -178.95755023 484.07299864 C-178.9652413 481.66200505 -178.96580233 479.25106241 -178.96640015 476.84005737 C-178.97041489 475.09894053 -178.97485313 473.35782461 -178.9796797 471.61670983 C-178.99164962 466.82218831 -178.99729462 462.02767686 -179.00186086 457.23314333 C-179.00781531 452.06595988 -179.01942549 446.89878848 -179.03015137 441.73161316 C-179.05467811 429.2481449 -179.06930248 416.76467265 -179.08221143 404.28118771 C-179.08592303 400.75593537 -179.08989628 397.23068341 -179.0939641 393.70543146 C-179.11919915 371.81863897 -179.14125435 349.93184586 -179.15369225 328.04504204 C-179.15662199 322.97501498 -179.15958364 317.90498795 -179.16259766 312.83496094 C-179.16334371 311.574816 -179.16408976 310.31467106 -179.16485842 309.01633991 C-179.1775144 288.59878348 -179.21074074 268.18131408 -179.25239949 247.76379834 C-179.29480963 226.80641285 -179.31838618 205.84907194 -179.32361281 184.89164364 C-179.32702785 173.12284131 -179.3387942 161.35417501 -179.37171555 149.58541489 C-179.39970444 139.56344706 -179.4107204 129.54164317 -179.39952008 119.5196393 C-179.39433062 114.40646881 -179.39723921 109.2936417 -179.42198563 104.18052101 C-179.44446287 99.49716039 -179.44375001 94.81439011 -179.42478175 90.13101925 C-179.42197963 88.43917395 -179.42759211 86.74728875 -179.44259469 85.05550765 C-179.52598656 75.03703705 -179.24410989 66.17769952 -172.05706251 58.41693103 C-165.44279989 52.11971388 -158.75482398 50.86490812 -149.94140625 51.01953125 C-149.019077 51.02377609 -148.09674774 51.02802094 -147.14646912 51.03239441 C-144.22233965 51.04908636 -141.29891851 51.08672062 -138.375 51.125 C-136.38347355 51.14005911 -134.39193621 51.15374536 -132.40039062 51.16601562 C-127.53749062 51.19895878 -122.6751151 51.25067501 -117.8125 51.3125 C-117.51158447 50.53076416 -117.21066895 49.74902832 -116.90063477 48.94360352 C-115.79496201 46.27009323 -114.60544005 44.4563507 -112.75 42.25 C-112.22277344 41.59902344 -111.69554688 40.94804688 -111.15234375 40.27734375 C-104.01988933 34.2879872 -96.56512106 33.75144091 -87.55859375 33.921875 C-85.84640404 33.93036469 -85.84640404 33.93036469 -84.09962463 33.93902588 C-80.48264192 33.96127251 -76.86667924 34.01144893 -73.25 34.0625 C-70.78582168 34.08258005 -68.32162771 34.10082817 -65.85742188 34.1171875 C-59.84210462 34.16109888 -53.82737522 34.22789356 -47.8125 34.3125 C-47.61343048 33.69258682 -47.41436096 33.07267365 -47.20925903 32.43397522 C-46.94442719 31.62182053 -46.67959534 30.80966583 -46.40673828 29.97290039 C-46.14579376 29.16736221 -45.88484924 28.36182404 -45.61599731 27.53187561 C-41.5783012 16.37917589 -29.966295 8.46840598 -19.8046875 3.5390625 C-13.07269664 0.77947356 -7.19349941 -0.04740139 0 0 Z M-26.8125 31.3125 C-29.78501192 35.5081508 -31.68831973 39.8327098 -33.3125 44.6875 C-35.02596201 48.82836652 -35.865442 49.46160247 -39.8125 51.3125 C-42.55079651 51.68431091 -42.55079651 51.68431091 -45.54907227 51.68139648 C-46.67696671 51.68827988 -47.80486115 51.69516327 -48.9669342 51.70225525 C-50.17538498 51.69609695 -51.38383575 51.68993866 -52.62890625 51.68359375 C-55.19205867 51.70096969 -57.75520968 51.71855413 -60.31835938 51.73632812 C-64.35636591 51.74943329 -68.39434998 51.749994 -72.43237305 51.74829102 C-76.33140626 51.74823012 -80.22998439 51.77915243 -84.12890625 51.80859375 C-85.94461876 51.79631996 -85.94461876 51.79631996 -87.79701233 51.78379822 C-89.48412575 51.79885155 -89.48412575 51.79885155 -91.20532227 51.81420898 C-92.68827538 51.81395973 -92.68827538 51.81395973 -94.20118713 51.81370544 C-97.55296358 52.45393813 -98.71582353 53.67170159 -100.8125 56.3125 C-102.04437151 60.00811454 -101.993987 63.45409725 -102.015625 67.3046875 C-102.02132507 68.08764191 -102.02702515 68.87059631 -102.03289795 69.67727661 C-102.04233845 71.33317721 -102.04887816 72.98909651 -102.05273438 74.64501953 C-102.06243752 77.17123366 -102.09346782 79.69663308 -102.125 82.22265625 C-102.13153075 83.83332851 -102.13678094 85.44400658 -102.140625 87.0546875 C-102.1529718 87.80692596 -102.1653186 88.55916443 -102.17803955 89.334198 C-102.15902401 93.837245 -101.69781542 96.7942399 -98.8125 100.3125 C-95.16361107 102.815954 -91.36833622 102.59255208 -87.1072998 102.56646729 C-85.9364689 102.57114726 -85.9364689 102.57114726 -84.74198484 102.57592177 C-82.12413724 102.58390479 -79.50652124 102.57757697 -76.88867188 102.57128906 C-75.01282109 102.57399879 -73.13697136 102.57755962 -71.26112366 102.58190918 C-66.16412059 102.59103761 -61.06719837 102.58748704 -55.97019386 102.58115101 C-50.64024256 102.57609338 -45.31029825 102.5807818 -39.98034668 102.58392334 C-31.02904007 102.58756367 -22.07776645 102.58276211 -13.12646484 102.57324219 C-2.77225142 102.56235752 7.58188325 102.56588305 17.93609476 102.576895 C26.82024768 102.58596594 35.70437687 102.58725409 44.58853292 102.58201766 C49.89717494 102.5788969 55.20577991 102.57849153 60.51441956 102.58509064 C65.50483964 102.59086066 70.49515801 102.58687348 75.48556709 102.57530212 C77.31897882 102.5726537 79.15239907 102.57342373 80.98580742 102.57782745 C83.48475446 102.58327714 85.98337375 102.57645584 88.4822998 102.56646729 C89.21109108 102.57092873 89.93988236 102.57539017 90.69075823 102.57998681 C94.33174016 102.55167914 97.17024545 102.46355469 100.1875 100.3125 C102.80132968 96.39175548 102.5296469 92.99988907 102.55859375 88.4453125 C102.56762222 87.57357391 102.5766507 86.70183533 102.58595276 85.80368042 C102.60045862 83.95948726 102.60934283 82.1152426 102.61303711 80.27099609 C102.62492815 77.45451767 102.67410341 74.64023434 102.72460938 71.82421875 C102.73407446 70.03126068 102.74130909 68.23828917 102.74609375 66.4453125 C102.76562607 65.60557892 102.78515839 64.76584534 102.80528259 63.90066528 C102.77505346 59.96757259 102.43500441 57.7449279 100.45141602 54.27929688 C95.30507538 51.17817337 90.30178036 51.64566915 84.40625 51.7109375 C83.16000854 51.70293121 81.91376709 51.69492493 80.62976074 51.68667603 C77.3237542 51.6675032 74.01860145 51.66799034 70.71258545 51.68048096 C66.05671978 51.69661841 61.40108061 51.69149673 56.74523926 51.66690063 C54.26894838 51.65479413 51.79253102 51.65750847 49.31628418 51.67660522 C48.19161743 51.67294952 47.06695068 51.66929382 45.90820312 51.66552734 C44.92178833 51.66950531 43.93537354 51.67348328 42.91906738 51.67758179 C39.66982757 51.2433116 37.80722791 50.25933783 35.1875 48.3125 C33.8515625 45.4921875 33.8515625 45.4921875 32.8125 42.1875 C29.28134786 32.2782043 23.71919662 25.04061436 14.23828125 20.34765625 C-1.45517197 14.05287002 -15.97275791 19.31549008 -26.8125 31.3125 Z M-160.8125 74.3125 C-161.55703372 77.66409494 -161.55703372 77.66409494 -161.43891239 81.41339207 C-161.44588 82.12032636 -161.45284761 82.82726064 -161.46002635 83.55561718 C-161.47730893 85.93090275 -161.45888668 88.30456539 -161.44068909 90.67982483 C-161.44573288 92.39721383 -161.45296042 94.11459758 -161.46218723 95.8319692 C-161.48116011 100.5561809 -161.46884749 105.27987674 -161.4514643 110.00407565 C-161.43812025 115.09684618 -161.45351668 120.18953974 -161.46528625 125.28230286 C-161.48368896 135.26067659 -161.47513313 145.23885483 -161.45719803 155.21722252 C-161.44318714 163.32444474 -161.43927598 171.4316138 -161.4426403 179.53884697 C-161.44311775 180.6915649 -161.44359519 181.84428284 -161.4440871 183.03193162 C-161.4451134 185.37345304 -161.44616876 187.71497445 -161.44725286 190.05649584 C-161.45582515 210.77248498 -161.43912732 231.48837957 -161.40942383 252.2043457 C-161.38058143 272.319946 -161.37350398 292.43541009 -161.38891602 312.55102539 C-161.40566471 334.44130072 -161.40972628 356.33151134 -161.39220566 378.22178835 C-161.39036121 380.55451516 -161.38852648 382.88724197 -161.38670158 385.2199688 C-161.38578949 386.36780088 -161.3848774 387.51563296 -161.38393768 388.69824784 C-161.37832428 396.79914369 -161.3816469 404.90000803 -161.38824654 413.00090218 C-161.3959659 422.86821978 -161.38927749 432.73540314 -161.3640715 442.60269362 C-161.35154441 447.64012883 -161.34546872 452.6773547 -161.35661316 457.71479797 C-161.36661336 462.32190055 -161.35828657 466.9285846 -161.33503198 471.535636 C-161.32984906 473.20646826 -161.33147672 474.87733767 -161.34042663 476.548154 C-161.35154759 478.81175977 -161.33827243 481.07393192 -161.31865788 483.33744907 C-161.31746639 484.59692909 -161.31627491 485.8564091 -161.31504732 487.15405518 C-161.04529634 490.36593336 -161.04529634 490.36593336 -159.09078759 492.71767873 C-156.41533324 494.59052021 -155.09322316 494.81036466 -151.85374069 494.80469131 C-150.3474177 494.81663761 -150.3474177 494.81663761 -148.81066394 494.82882524 C-147.70950409 494.81717387 -146.60834424 494.8055225 -145.47381592 494.79351807 C-144.30250224 494.79693577 -143.13118857 494.80035347 -141.92438054 494.80387473 C-138.67233085 494.80932951 -135.42091693 494.79680938 -132.16894245 494.77676249 C-128.66250431 494.75950431 -125.15609634 494.76533302 -121.64962769 494.76837158 C-115.57419544 494.77046999 -109.49893489 494.75790965 -103.42354584 494.73542023 C-94.63956029 494.70292547 -85.85565785 494.69249581 -77.07161871 494.68746826 C-62.82048518 494.67871164 -48.56944319 494.65208611 -34.31835938 494.61425781 C-20.473963 494.57754722 -6.62959147 494.54923081 7.21484375 494.53222656 C8.06807359 494.53117567 8.92130343 494.53012477 9.80038872 494.52904204 C14.08075041 494.52382192 18.36111227 494.51876708 22.64147425 494.51379442 C58.15688142 494.47232094 93.67218227 494.40186253 129.1875 494.3125 C128.39659973 493.68236496 127.60569946 493.05222992 126.79083252 492.40299988 C124.83315568 490.83096743 122.95286037 489.25054047 121.109375 487.55078125 C120.58859375 487.07189453 120.0678125 486.59300781 119.53125 486.09960938 C119.0053125 485.61298828 118.479375 485.12636719 117.9375 484.625 C117.39609375 484.12677734 116.8546875 483.62855469 116.296875 483.11523438 C112.40302579 479.52802579 112.40302579 479.52802579 111.1875 478.3125 C108.06606583 478.20867449 104.96647773 478.17092997 101.84443665 478.17446899 C100.85142884 478.17164771 99.85842103 478.16882643 98.83532208 478.16591966 C95.48045765 478.15753191 92.12562604 478.15623185 88.77075195 478.15478516 C86.37642828 478.15011996 83.98210551 478.14497689 81.58778381 478.13938904 C76.41764298 478.12808447 71.24750527 478.11961079 66.07735634 478.11326981 C57.90540533 478.10295752 49.7334952 478.08239677 41.56156921 478.06015015 C38.76726641 478.05266975 35.97296343 478.04525609 33.17866039 478.03786278 C32.131045 478.03508693 32.131045 478.03508693 31.06226567 478.032255 C23.10604893 478.01131369 15.14982767 477.99249315 7.19360352 477.97460938 C6.46603288 477.97297119 5.73846224 477.97133301 4.988844 477.96964519 C-6.79551009 477.94337358 -18.57986733 477.92472396 -30.36423828 477.90801747 C-42.45772851 477.89059568 -54.55115722 477.86174759 -66.64459831 477.8231281 C-74.10630073 477.7997267 -81.56790285 477.78573341 -89.02964226 477.78380047 C-94.7498874 477.78144144 -100.47000218 477.76357223 -106.19019508 477.73993111 C-108.53716144 477.73272437 -110.8841499 477.73064376 -113.23112488 477.73403358 C-116.43247346 477.73791914 -119.63323585 477.7235026 -122.83451843 477.70449829 C-123.76575065 477.71002799 -124.69698286 477.71555768 -125.65643424 477.72125494 C-130.79288594 477.66853629 -134.37294648 477.18616443 -138.8125 474.3125 C-143.09659903 469.68104159 -143.936785 466.39983736 -143.94672108 460.20009995 C-143.95117892 458.91307072 -143.95563676 457.6260415 -143.96022969 456.3000114 C-143.96014039 454.8633987 -143.95995053 453.42678601 -143.95967102 451.99017334 C-143.96296953 450.47052073 -143.96669506 448.950869 -143.9708125 447.43121839 C-143.98084203 443.24432867 -143.98455082 439.05745329 -143.98720181 434.87055326 C-143.991102 430.3591763 -144.00068048 425.84781073 -144.00941467 421.33644104 C-144.02918639 410.43656507 -144.03924585 399.53668816 -144.04814246 388.63679874 C-144.0525239 383.50629101 -144.05789106 378.37578432 -144.06313133 373.2452774 C-144.08014375 356.19482513 -144.09463879 339.1443735 -144.10188007 322.09391403 C-144.10379002 317.66824086 -144.10571035 313.24256769 -144.10766602 308.81689453 C-144.10814976 307.71689036 -144.1086335 306.61688618 -144.1091319 305.48354855 C-144.11743542 287.65698943 -144.14277771 269.83049734 -144.17524669 252.00396749 C-144.20829586 233.71006661 -144.22632686 215.41619982 -144.22952431 197.12226892 C-144.23169132 186.84754038 -144.24046785 176.57290962 -144.26598549 166.29821014 C-144.28766316 157.54937989 -144.29575735 148.80067115 -144.28601871 140.05181709 C-144.28146558 135.58714656 -144.28341888 131.12272691 -144.30278015 126.65809059 C-144.32035245 122.57073302 -144.31946268 118.48381045 -144.30388286 114.39644864 C-144.30149774 112.91795261 -144.3058771 111.43942692 -144.31771151 109.96097633 C-144.42150134 96.13831131 -144.42150134 96.13831131 -139.8125 90.3125 C-133.69518816 85.3665883 -127.52123321 85.63038591 -119.8125 85.3125 C-119.8125 80.0325 -119.8125 74.7525 -119.8125 69.3125 C-124.84933626 69.19750374 -129.88159639 69.0980424 -134.91870117 69.0378418 C-136.63077245 69.01274286 -138.34273704 68.97865571 -140.05444336 68.93530273 C-142.51963645 68.87444261 -144.98340985 68.84624568 -147.44921875 68.82421875 C-148.21086838 68.79841232 -148.97251801 68.7726059 -149.75724792 68.74601746 C-155.30210293 68.74311056 -157.41919543 70.01633848 -160.8125 74.3125 Z M120.1875 69.3125 C120.1875 74.5925 120.1875 79.8725 120.1875 85.3125 C123.219375 85.4671875 123.219375 85.4671875 126.3125 85.625 C132.70711809 86.13184812 136.85802606 86.91831845 141.4375 91.625 C145.42266833 97.74507994 145.49044262 103.56214597 145.50634766 110.63232422 C145.51639328 111.65732529 145.5264389 112.68232635 145.53678894 113.73838806 C145.56759404 117.11464902 145.58464886 120.49083077 145.6015625 123.8671875 C145.62027627 126.21274496 145.63984984 128.5582957 145.6602478 130.90383911 C145.71155275 137.06868529 145.7511874 143.23355328 145.78839111 149.39849854 C145.8284409 155.69280387 145.87952884 161.98701854 145.9296875 168.28125 C146.02642749 180.6249363 146.11083857 192.96867381 146.1875 205.3125 C151.42359987 207.24158943 156.71885543 208.29658579 162.1875 209.3125 C162.23420564 191.91016203 162.26948179 174.5078436 162.29112434 157.10545731 C162.30144012 149.02536169 162.31550622 140.94530501 162.33837891 132.86523438 C162.35830355 125.82324598 162.37121424 118.78128577 162.37567699 111.73926997 C162.37828594 108.01003578 162.38442437 104.28088225 162.39896011 100.55167389 C162.41504938 96.39020702 162.41548028 92.22888068 162.41455078 88.06738281 C162.42174133 86.82876495 162.42893188 85.59014709 162.43634033 84.31399536 C162.433591 83.18100006 162.43084167 82.04800476 162.42800903 80.88067627 C162.43077441 79.40396391 162.43077441 79.40396391 162.43359566 77.89741898 C162.17370825 75.16763536 161.69162106 73.592141 160.1875 71.3125 C156.35077717 68.75468478 153.24214013 69.05943544 148.80078125 69.1171875 C147.98377243 69.1200174 147.16676361 69.12284729 146.32499695 69.12576294 C143.71651541 69.13695459 141.1083777 69.1620571 138.5 69.1875 C136.73112475 69.19753112 134.96224412 69.20665674 133.19335938 69.21484375 C128.857834 69.23518878 124.5230517 69.27433866 120.1875 69.3125 Z M-126.8125 103.3125 C-126.8125 221.1225 -126.8125 338.9325 -126.8125 460.3125 C-53.2225 460.3125 20.3675 460.3125 96.1875 460.3125 C93.5475 455.0325 90.9075 449.7525 88.1875 444.3125 C79.21978337 422.92794497 77.5222321 402.4667511 77.66601562 379.484375 C77.68888998 375.79077912 77.6752019 372.09833025 77.65226364 368.40477276 C77.46853181 333.64875927 77.46853181 333.64875927 85.9375 318 C86.27966553 317.34394775 86.62183105 316.68789551 86.97436523 316.01196289 C94.72021073 301.54137147 104.71813912 292.24960297 118.1875 283.3125 C119.1775 282.6525 120.1675 281.9925 121.1875 281.3125 C120.0447573 278.61147179 118.76959831 276.82737366 116.83203125 274.578125 C104.05994467 259.41979037 102.0388894 238.65465584 103.4609375 219.66015625 C104.24932748 212.92909087 104.24932748 212.92909087 105.1875 210.3125 C107.5703125 209.015625 107.5703125 209.015625 110.1875 208.3125 C111.239375 207.961875 112.29125 207.61125 113.375 207.25 C117.32897417 206.27771127 121.0980252 205.85839768 125.1484375 205.55859375 C127.17945453 205.52630776 127.17945453 205.52630776 128.1875 204.3125 C128.28284958 201.17690114 128.31300879 198.06336387 128.30102539 194.92749023 C128.30124443 193.44960526 128.30124443 193.44960526 128.3014679 191.94186401 C128.30076832 188.66825193 128.29297385 185.39469596 128.28515625 182.12109375 C128.28329223 179.85807832 128.28186825 177.59506249 128.28086853 175.33204651 C128.2770421 169.36271052 128.26721075 163.39339868 128.25616455 157.42407227 C128.24595312 151.33805671 128.24137149 145.25203727 128.23632812 139.16601562 C128.22558859 127.21483311 128.20851068 115.26366856 128.1875 103.3125 C126.5793807 103.21279059 124.96949054 103.14134071 123.359375 103.08203125 C122.4631543 103.03925049 121.56693359 102.99646973 120.64355469 102.95239258 C118.08136064 103.069312 118.08136064 103.069312 116.55932617 105.0324707 C115.77633445 106.40573083 115.03132012 107.80103766 114.31640625 109.2109375 C111.50813105 114.4387993 106.70434947 116.77596963 101.37461364 118.69575512 C97.82929246 119.69550138 94.43266711 119.72989494 90.7691803 119.70018005 C89.96015162 119.70556559 89.15112295 119.71095113 88.31757826 119.71649987 C85.62700665 119.73072144 82.93693108 119.72369021 80.24633789 119.71655273 C78.30904243 119.72225933 76.37175033 119.7292247 74.4344635 119.73735046 C69.18651777 119.75526464 63.9387394 119.75411678 58.69077229 119.74840808 C54.30460264 119.74531383 49.91846503 119.75141129 45.53229994 119.75744683 C35.18272028 119.77148463 24.83322318 119.76993684 14.48364258 119.75854492 C3.81695674 119.74706321 -6.84947768 119.76114206 -17.51613039 119.7879414 C-26.68495194 119.81011252 -35.85369465 119.81673261 -45.02254111 119.81086498 C-50.49397495 119.80749776 -55.96524763 119.80989511 -61.43665886 119.82711601 C-66.58236545 119.84260559 -71.7277001 119.8386071 -76.87339211 119.81981087 C-78.75792241 119.81613064 -80.64248041 119.81921689 -82.52698517 119.82969666 C-100.90790296 119.92408159 -100.90790296 119.92408159 -107.8125 115.3125 C-108.37613219 114.94278296 -108.93976439 114.57306593 -109.52047634 114.19214535 C-113.56587404 111.18645452 -115.57365929 107.70407216 -117.8125 103.3125 C-120.7825 103.3125 -123.7525 103.3125 -126.8125 103.3125 Z M121.1875 223.3125 C117.73712858 233.66361426 121.00560416 247.21737238 125.4375 256.8125 C130.25003086 265.46068979 136.92350043 270.22450014 146.1875 273.3125 C148.76192132 273.45418446 151.31436738 273.5457182 153.890625 273.59375 C155.02464752 273.62136414 155.02464752 273.62136414 156.18157959 273.64953613 C158.60014128 273.70822911 161.01877477 273.76101729 163.4375 273.8125 C166.60950849 273.88061256 169.78131755 273.95440356 172.953125 274.03125 C173.67316711 274.04482544 174.39320923 274.05840088 175.1350708 274.0723877 C179.57428514 274.17986218 183.81422615 274.60579497 188.1875 275.3125 C185.32056108 258.25071717 180.25938025 242.3863777 165.546875 231.80859375 C151.18998622 222.704805 137.80388408 221.73576282 121.1875 223.3125 Z M108.1875 314.3125 C100.46320277 325.04780883 95.11489728 337.92183796 95.02636719 351.24169922 C95.01675964 352.41417206 95.0071521 353.5866449 94.99725342 354.79464722 C94.99300354 356.05608551 94.98875366 357.3175238 94.984375 358.6171875 C94.97867493 359.9284964 94.97297485 361.2398053 94.96710205 362.59085083 C94.9566126 365.36981592 94.95075844 368.1487523 94.94726562 370.92773438 C94.9418256 374.44511348 94.91788692 377.96209669 94.88929367 381.47935295 C94.87041849 384.21988932 94.86544842 386.96033575 94.86392975 389.70093155 C94.85952552 391.61429626 94.84099276 393.52761233 94.82196045 395.44088745 C94.88279133 419.84529729 104.06895778 442.38611599 119.1875 461.3125 C119.6515625 461.91964844 120.115625 462.52679688 120.59375 463.15234375 C133.82603307 480.0056232 156.2046762 491.50815367 177.1875 494.3125 C185.26709996 494.92498788 193.36391446 494.889494 201.46191406 494.83398438 C205.18100176 494.81253747 208.89815815 494.83388205 212.6171875 494.859375 C228.85588847 494.87962977 244.24075208 494.06586565 259 486.625 C259.69738281 486.2846875 260.39476562 485.944375 261.11328125 485.59375 C267.7487232 482.23943651 273.48214112 478.08671722 279.1875 473.3125 C279.97382813 472.68859375 280.76015625 472.0646875 281.5703125 471.421875 C300.27680782 455.90917157 312.88804701 430.37580553 315.1875 406.3125 C315.36675683 401.8131273 315.3991968 397.31507516 315.42578125 392.8125 C315.43788887 390.84978149 315.43788887 390.84978149 315.45024109 388.84741211 C315.46520698 386.08040504 315.47507168 383.31342298 315.48266602 380.54638672 C315.49148986 377.73789537 315.51228881 374.92990461 315.54418945 372.12158203 C315.80954827 348.23273069 315.00051086 327.77653728 297.421875 309.51953125 C296.68453125 308.79121094 295.9471875 308.06289063 295.1875 307.3125 C294.57390625 306.67699219 293.9603125 306.04148437 293.328125 305.38671875 C281.41726531 293.90851849 266.54718044 290.91396869 250.60693359 290.83203125 C248.3237172 290.81259549 246.04409495 290.75042142 243.76171875 290.6875 C234.9804943 290.56068084 228.09185347 291.31897559 221.1875 297.3125 C215.24262677 303.71229422 213.95251028 310.99272077 213.625 319.5 C213.21912138 328.8524798 213.21912138 328.8524798 212.1875 331.3125 C209.51106043 332.20464652 207.93365622 332.44790211 205.1875 332.4375 C204.1665625 332.44136719 204.1665625 332.44136719 203.125 332.4453125 C201.1875 332.3125 201.1875 332.3125 198.1875 331.3125 C196.90909615 328.27722535 197.05154917 325.03457974 196.94873047 321.77905273 C196.58077431 311.34103814 194.94200521 303.2866318 187.1640625 295.78515625 C180.13941869 290.55138013 173.29868267 290.81905177 164.92260742 290.86645508 C162.6551391 290.87488791 160.3902619 290.84630227 158.12304688 290.81445312 C137.89849247 290.71559346 120.92531552 298.45493648 108.1875 314.3125 Z " fill="#000000" transform="translate(178.8125,-0.3125)"/>
<path d="M0 0 C2.20570851 -0.00968797 4.41047736 -0.04072695 6.6159668 -0.07226562 C8.03327902 -0.07879854 9.45059785 -0.08404788 10.86791992 -0.08789062 C12.14642822 -0.09723633 13.42493652 -0.10658203 14.7421875 -0.11621094 C21.44589527 0.53511091 25.98879536 3.06006793 30.41088867 8.24023438 C32.9794094 12.02781888 32.73401442 16.06492553 32.74682617 20.47851562 C32.75348297 21.27750778 32.76013977 22.07649994 32.76699829 22.89970398 C32.7771085 24.58830469 32.78181582 26.27694523 32.78149414 27.96557617 C32.78585637 30.53372039 32.82216027 33.10012965 32.86010742 35.66796875 C32.86597836 37.3131452 32.8699459 38.95832977 32.87182617 40.60351562 C32.8861972 41.36416824 32.90056824 42.12482086 32.91537476 42.90852356 C32.86845783 48.45420408 31.58808503 51.67314912 28.41088867 56.24023438 C22.89910116 60.51468184 18.69351295 61.40260911 11.89135742 61.44335938 C11.15516678 61.44905945 10.41897614 61.45475952 9.66047668 61.46063232 C8.10293002 61.47007194 6.54536347 61.47661218 4.98779297 61.48046875 C2.61739781 61.49015668 0.24787665 61.52118113 -2.12231445 61.55273438 C-3.63858537 61.55926679 -5.15486246 61.56451632 -6.67114258 61.56835938 C-7.3744722 61.58070618 -8.07780182 61.59305298 -8.80244446 61.60577393 C-14.31657469 61.58109572 -18.37499992 60.28260129 -22.45239258 56.52148438 C-22.93063477 55.93367188 -23.40887695 55.34585938 -23.90161133 54.74023438 C-24.39274414 54.15242188 -24.88387695 53.56460938 -25.38989258 52.95898438 C-28.08145987 49.1013635 -27.76606471 45.00530036 -27.79223633 40.50195312 C-27.7979364 39.74356644 -27.80363647 38.98517975 -27.80950928 38.20381165 C-27.81894989 36.5991861 -27.82548953 34.99454126 -27.8293457 33.38989258 C-27.8390346 30.94707983 -27.87005873 28.50511477 -27.90161133 26.0625 C-27.9081436 24.50065602 -27.91339319 22.93880604 -27.91723633 21.37695312 C-27.92958313 20.65174973 -27.94192993 19.92654633 -27.95465088 19.17936707 C-27.93040251 13.59951614 -26.66744768 9.54038853 -22.90551758 5.37695312 C-22.32672852 4.89871094 -21.74793945 4.42046875 -21.15161133 3.92773438 C-20.57540039 3.43660156 -19.99918945 2.94546875 -19.40551758 2.43945312 C-13.88261947 -1.20684735 -6.36100977 0.01690821 0 0 Z M-9.58911133 18.24023438 C-9.58911133 26.49023438 -9.58911133 34.74023438 -9.58911133 43.24023438 C-1.66911133 43.24023438 6.25088867 43.24023438 14.41088867 43.24023438 C14.41088867 34.99023438 14.41088867 26.74023438 14.41088867 18.24023438 C6.49088867 18.24023438 -1.42911133 18.24023438 -9.58911133 18.24023438 Z " fill="#000000" transform="translate(95.589111328125,297.759765625)"/>
<path d="M0 0 C0.7314473 -0.00807175 1.46289459 -0.01614349 2.21650696 -0.02445984 C3.7656519 -0.03828238 5.31482706 -0.04901272 6.86401367 -0.05688477 C8.43799856 -0.06837607 10.01194535 -0.08878279 11.58569336 -0.1184082 C27.86266319 -0.42468147 27.86266319 -0.42468147 34.55078125 4.23828125 C39.38895826 9.32456991 39.72432742 13.61450925 39.7890625 20.37890625 C39.79713425 21.17931335 39.80520599 21.97972046 39.81352234 22.80438232 C39.82734726 24.49896082 39.83807653 26.19356698 39.84594727 27.88818359 C39.85745607 29.61450402 39.8778906 31.34078918 39.9074707 33.06689453 C39.95031148 35.56697669 39.96633958 38.06600179 39.9765625 40.56640625 C39.99407059 41.33019592 40.01157867 42.0939856 40.02961731 42.88092041 C40.00732618 48.44733395 38.73517412 51.65217883 35.55078125 56.23828125 C28.26172618 62.13155981 20.79810578 61.45268671 11.7956543 61.47851562 C9.75462808 61.48820366 7.71461787 61.51925946 5.67382812 61.55078125 C-9.41037231 61.61037315 -9.41037231 61.61037315 -15.5078125 56.51953125 C-15.96285156 55.93171875 -16.41789062 55.34390625 -16.88671875 54.73828125 C-17.35980469 54.15046875 -17.83289063 53.56265625 -18.3203125 52.95703125 C-20.87350071 49.06982429 -20.64193727 45.04213742 -20.6875 40.5703125 C-20.69557175 39.81666916 -20.70364349 39.06302582 -20.71195984 38.2865448 C-20.72578375 36.69032071 -20.73651348 35.09406727 -20.74438477 33.49780273 C-20.75587797 31.875318 -20.77628769 30.25287028 -20.8059082 28.63061523 C-21.1137393 11.76525426 -21.1137393 11.76525426 -16.44921875 5.23828125 C-11.03434587 0.92848447 -6.73553284 0.07076224 0 0 Z M-2.44921875 18.23828125 C-2.44921875 26.48828125 -2.44921875 34.73828125 -2.44921875 43.23828125 C5.47078125 43.23828125 13.39078125 43.23828125 21.55078125 43.23828125 C21.55078125 34.98828125 21.55078125 26.73828125 21.55078125 18.23828125 C13.63078125 18.23828125 5.71078125 18.23828125 -2.44921875 18.23828125 Z " fill="#000000" transform="translate(88.44921875,374.76171875)"/>
<path d="M0 0 C1.22847656 -0.01611328 2.45695312 -0.03222656 3.72265625 -0.04882812 C12.08735458 -0.05331081 19.44040117 0.25506693 26.0625 5.75 C30.00110271 10.64341549 30.4331376 14.37206131 30.42578125 20.5859375 C30.43006638 21.38730133 30.4343515 22.18866516 30.43876648 23.01431274 C30.44450053 24.70712338 30.44501685 26.39995866 30.44067383 28.09277344 C30.43751938 30.671656 30.46096427 33.24938463 30.48632812 35.828125 C30.4886019 37.47656106 30.48930425 39.12500019 30.48828125 40.7734375 C30.497491 41.5392514 30.50670074 42.30506531 30.51618958 43.09408569 C30.47509226 47.89346746 29.73468001 51.13779391 27.125 55.3125 C21.71722696 60.3042905 17.63755693 61.62593438 10.359375 61.6484375 C9.60714661 61.6550943 8.85491821 61.6617511 8.07989502 61.66860962 C6.48964881 61.67871825 4.89936034 61.68342719 3.30908203 61.68310547 C0.89673312 61.68746076 -1.51375798 61.72374578 -3.92578125 61.76171875 C-19.81441604 61.88764863 -19.81441604 61.88764863 -26.43261719 55.90429688 C-31.52893724 49.73228297 -30.55270983 41.21718763 -30.41699219 33.65771484 C-30.37498075 31.18636766 -30.37594545 28.71773963 -30.3828125 26.24609375 C-30.37232274 24.66143956 -30.35938578 23.07679927 -30.34375 21.4921875 C-30.34354858 20.76079559 -30.34334717 20.02940369 -30.34313965 19.27584839 C-30.19826483 12.95279609 -28.57863068 9.01613068 -24.125 4.5625 C-16.65474714 -0.60921352 -8.80418486 -0.02295147 0 0 Z M-11.875 18.3125 C-11.875 26.5625 -11.875 34.8125 -11.875 43.3125 C-3.955 43.3125 3.965 43.3125 12.125 43.3125 C12.125 35.0625 12.125 26.8125 12.125 18.3125 C4.205 18.3125 -3.715 18.3125 -11.875 18.3125 Z " fill="#000000" transform="translate(97.875,220.6875)"/>
<path d="M0 0 C1.20416817 -0.01210762 1.20416817 -0.01210762 2.43266296 -0.02445984 C4.1314377 -0.03828325 5.83024 -0.0490132 7.52905273 -0.05688477 C10.11691383 -0.0740871 12.70349334 -0.11798567 15.29101562 -0.16210938 C16.94400105 -0.17223797 18.59699731 -0.18075356 20.25 -0.1875 C21.40342644 -0.21376213 21.40342644 -0.21376213 22.58015442 -0.24055481 C27.78846273 -0.2196999 30.67216713 0.83620245 34.82421875 4.23828125 C39.42982675 9.46626871 39.99964532 12.71051714 40.0625 19.53515625 C40.07057175 20.36154602 40.07864349 21.18793579 40.08695984 22.03936768 C40.10080246 23.79119773 40.11152382 25.54305477 40.11938477 27.29492188 C40.13656292 29.96406821 40.18044164 32.63196456 40.22460938 35.30078125 C40.23473957 37.00389715 40.24325465 38.70702358 40.25 40.41015625 C40.26750809 41.20411804 40.28501617 41.99807983 40.30305481 42.81610107 C40.28255462 48.09872818 39.28795 51.02900949 35.82421875 55.23828125 C30.65592293 59.90235309 26.65994324 60.4100064 19.90234375 60.4765625 C19.12413269 60.48463425 18.34592163 60.49270599 17.54412842 60.50102234 C15.89662899 60.514846 14.24910112 60.52557584 12.6015625 60.53344727 C10.92374225 60.54495473 9.24595826 60.56538717 7.56835938 60.5949707 C5.13776902 60.63782686 2.70826592 60.65384157 0.27734375 60.6640625 C-0.46457214 60.68157059 -1.20648804 60.69907867 -1.97088623 60.71711731 C-8.20204228 60.69146106 -12.14628765 58.83348711 -16.93334961 54.73266602 C-21.56604667 48.19511933 -20.89160796 40.31034834 -20.77270508 32.63842773 C-20.73830825 30.17771307 -20.75209628 27.72058157 -20.77148438 25.25976562 C-20.7645865 23.67837031 -20.75491463 22.09698415 -20.7421875 20.515625 C-20.74714737 19.78939438 -20.75210724 19.06316376 -20.75721741 18.31492615 C-20.63390696 12.90796885 -19.21703639 9.71996541 -16.17578125 5.23828125 C-11.00702225 0.44772413 -6.8127857 0.06493426 0 0 Z M-2.17578125 18.23828125 C-2.17578125 26.15828125 -2.17578125 34.07828125 -2.17578125 42.23828125 C5.74421875 42.23828125 13.66421875 42.23828125 21.82421875 42.23828125 C21.82421875 34.31828125 21.82421875 26.39828125 21.82421875 18.23828125 C13.90421875 18.23828125 5.98421875 18.23828125 -2.17578125 18.23828125 Z " fill="#000000" transform="translate(88.17578125,144.76171875)"/>
<path d="M0 0 C1.03183914 -0.00571014 2.06367828 -0.01142029 3.12678528 -0.01730347 C4.25828506 -0.01842133 5.38978485 -0.01953918 6.55557251 -0.02069092 C8.3437162 -0.02813828 8.3437162 -0.02813828 10.16798401 -0.03573608 C13.43870472 -0.04784427 16.70938969 -0.05530264 19.98012877 -0.05974674 C22.02397277 -0.0626791 24.06781119 -0.0667842 26.11165237 -0.07125092 C32.50767121 -0.0849222 38.90367725 -0.0945909 45.29970968 -0.09845281 C52.68073631 -0.10293409 60.06157781 -0.12048665 67.44254816 -0.1494534 C73.14964978 -0.17107299 78.85669932 -0.18115722 84.56384146 -0.18249393 C87.97172453 -0.18354168 91.37943348 -0.18944303 94.78727341 -0.20731354 C98.58908954 -0.22433043 102.3904527 -0.22250423 106.19229126 -0.21600342 C107.88346825 -0.22982559 107.88346825 -0.22982559 109.60881042 -0.243927 C111.16502861 -0.23557327 111.16502861 -0.23557327 112.75268555 -0.22705078 C113.65122442 -0.22851734 114.5497633 -0.2299839 115.47553062 -0.2314949 C118.60126346 0.22842162 120.45615503 1.29448969 123.00332642 3.14044189 C125.50364296 6.89091671 125.53936196 8.69900455 125.00332642 13.14044189 C123.23513794 15.8265686 123.23513794 15.8265686 120.00332642 18.14044189 C115.95988646 18.89436476 111.96002916 18.82316264 107.85684204 18.78741455 C106.62543991 18.79617615 105.39403778 18.80493774 104.12532043 18.81396484 C100.75501221 18.83218464 97.38624144 18.82793935 94.01601982 18.81206942 C90.48560427 18.79939038 86.9552534 18.81115606 83.42483521 18.81900024 C77.49661494 18.82809106 71.56870636 18.81612414 65.64053345 18.79229736 C58.79144962 18.76508672 51.94311001 18.77390131 45.09404421 18.80142939 C39.20849895 18.82413598 33.32317744 18.82731312 27.43760252 18.81423604 C23.92462182 18.80644987 20.41199069 18.80537643 16.89903259 18.82191849 C12.98233217 18.83907418 9.06646205 18.81528207 5.14981079 18.78741455 C3.40724251 18.80259628 3.40724251 18.80259628 1.62947083 18.81808472 C-7.11627856 18.70265486 -7.11627856 18.70265486 -10.21652222 15.73110962 C-12.97730531 11.71332114 -12.68147187 9.93402991 -11.99667358 5.14044189 C-8.66794416 0.66387474 -5.35695211 0.01774938 0 0 Z " fill="#000000" transform="translate(156.99667358398438,169.85955810546875)"/>
<path d="M0 0 C1.00100235 -0.0112793 2.0020047 -0.02255859 3.03334045 -0.03417969 C4.67144936 -0.0220343 4.67144936 -0.0220343 6.34265137 -0.00964355 C7.4974852 -0.01665283 8.65231903 -0.02366211 9.84214783 -0.03088379 C13.66482488 -0.04850909 17.48676347 -0.03682409 21.30944824 -0.02331543 C23.9621676 -0.02600902 26.61486441 -0.029884 29.26757812 -0.03491211 C34.82930524 -0.04218728 40.39081981 -0.03260447 45.95251465 -0.0135498 C52.3806011 0.00821899 58.80818006 0.0011675 65.23625422 -0.02085543 C70.75741495 -0.03901338 76.27842299 -0.04156592 81.79960394 -0.03110075 C85.09624305 -0.02486784 88.39259159 -0.02559701 91.68922424 -0.0372467 C95.36441564 -0.04738333 99.03862689 -0.03194973 102.71374512 -0.00964355 C103.80581772 -0.01774048 104.89789032 -0.0258374 106.02305603 -0.03417969 C107.52455956 -0.01726074 107.52455956 -0.01726074 109.05639648 0 C110.3593932 0.00226215 110.3593932 0.00226215 111.68871307 0.00457001 C114.8089741 0.67592662 116.00975878 2.0960169 118.02819824 4.50793457 C119.45482043 7.36117894 119.33853692 9.34248006 119.02819824 12.50793457 C116.87729373 15.84554502 115.82407025 17.2426439 112.02819824 18.50793457 C110.46608976 18.60337286 108.90024696 18.64282635 107.3352356 18.64837646 C105.88844673 18.65694168 105.88844673 18.65694168 104.41242981 18.66567993 C103.35573593 18.66679779 102.29904205 18.66791565 101.21032715 18.66906738 C99.5392263 18.67651474 99.5392263 18.67651474 97.83436584 18.68411255 C94.14115791 18.69874301 90.44799292 18.70553731 86.75476074 18.71105957 C84.19269814 18.71680984 81.63063556 18.72256759 79.068573 18.72833252 C74.38074155 18.73750059 69.69292732 18.74380018 65.00508845 18.74682927 C58.1085405 18.75131026 51.21219073 18.76886173 44.31570303 18.79782987 C38.33935532 18.82206049 32.3631013 18.82977401 26.38669968 18.83150482 C23.84535009 18.83453543 21.30400143 18.8425776 18.76268387 18.85569 C15.20992192 18.87271404 11.65764441 18.87087899 8.1048584 18.86437988 C6.52589027 18.87820206 6.52589027 18.87820206 4.9150238 18.89230347 C-3.99476408 18.84115759 -3.99476408 18.84115759 -7.97180176 15.50793457 C-10.07281771 12.83391427 -9.97027151 11.46508772 -9.84680176 8.00793457 C-8.43673375 2.36766253 -5.81904088 0.01010253 0 0 Z " fill="#000000" transform="translate(145.9718017578125,67.4920654296875)"/>
<path d="M0 0 C1.43679611 -0.00744736 1.43679611 -0.00744736 2.90261841 -0.01504517 C6.08181468 -0.02968933 9.26096104 -0.03647276 12.44018555 -0.04199219 C14.64495343 -0.04774205 16.84972129 -0.05349981 19.05448914 -0.05926514 C23.68232456 -0.06978173 28.31014258 -0.07562 32.93798828 -0.07910156 C38.86988616 -0.08458579 44.80155445 -0.10860965 50.73338032 -0.13707352 C55.28955254 -0.15569209 59.8456694 -0.1609051 64.40187645 -0.16243744 C66.58875979 -0.16546657 68.77564209 -0.1735038 70.96248817 -0.18662262 C74.02204497 -0.20366554 77.08104008 -0.20180694 80.140625 -0.1953125 C81.04522964 -0.20452728 81.94983429 -0.21374207 82.8818512 -0.22323608 C87.6521086 -0.19149559 90.91224249 0.01278927 94.7644043 3.16113281 C96.36057172 6.35346767 96.27906544 9.69574778 95.7644043 13.16113281 C93.89425335 15.59232904 92.48302085 16.80182454 89.7644043 18.16113281 C86.67867672 18.27042263 83.6151759 18.3184771 80.52880859 18.32226562 C79.57094452 18.32723053 78.61308044 18.33219543 77.62619019 18.33731079 C74.44699391 18.35195495 71.26784755 18.35873839 68.08862305 18.36425781 C65.88385516 18.37000768 63.6790873 18.37576543 61.47431946 18.38153076 C56.84648403 18.39204735 52.21866601 18.39788562 47.59082031 18.40136719 C41.65892243 18.40685141 35.72725415 18.43087528 29.79542828 18.45933914 C25.23925605 18.47795771 20.6831392 18.48317072 16.12693214 18.48470306 C13.94004881 18.48773219 11.7531665 18.49576943 9.56632042 18.50888824 C6.50676363 18.52593116 3.44776852 18.52407256 0.38818359 18.51757812 C-0.51642105 18.52679291 -1.4210257 18.53600769 -2.3530426 18.54550171 C-7.1233 18.51376122 -10.3834339 18.30947635 -14.2355957 15.16113281 C-15.83176313 11.96879796 -15.75025685 8.62651784 -15.2355957 5.16113281 C-10.93269239 -0.43264149 -6.61349211 0.00811808 0 0 Z " fill="#000000" transform="translate(160.235595703125,246.8388671875)"/>
<path d="M0 0 C0.8119986 -0.0087616 1.62399719 -0.01752319 2.46060181 -0.02655029 C5.13704314 -0.04850569 7.81182397 -0.03400613 10.48828125 -0.01708984 C12.3524609 -0.02045911 14.21663841 -0.02531265 16.08081055 -0.03158569 C19.98475085 -0.03895177 23.88811853 -0.02826018 27.79199219 -0.00488281 C32.79261351 0.02360496 37.7918931 0.00719954 42.79246521 -0.02274513 C46.64101241 -0.04082537 50.48924224 -0.03505678 54.33779907 -0.02210617 C56.18136759 -0.01877416 58.02496505 -0.02285205 59.86849976 -0.03450394 C62.44696199 -0.04722493 65.02326114 -0.02782029 67.6015625 0 C68.36119293 -0.01012115 69.12082336 -0.02024231 69.9034729 -0.03067017 C73.90023621 0.04909759 75.62723437 0.50633634 78.77392578 3.05630493 C80.76642041 5.60305363 81.46992695 6.55401445 81.36328125 9.70947266 C80.80078125 13.64697266 80.80078125 13.64697266 78.98828125 16.08447266 C74.90500314 19.00109988 71.00866997 18.79522655 66.19580078 18.79223633 C65.42310852 18.79559494 64.65041626 18.79895355 63.85430908 18.80241394 C61.29738766 18.81192052 58.74053175 18.81386694 56.18359375 18.81494141 C54.40623955 18.81815432 52.62888562 18.82151842 50.85153198 18.82502747 C47.12415962 18.83101809 43.39681044 18.83286745 39.66943359 18.83227539 C34.89559966 18.8321738 30.12191458 18.84582286 25.34811592 18.8630476 C21.6763745 18.8741721 18.004669 18.87619445 14.33291245 18.87566566 C12.57307294 18.87684522 10.81323249 18.88126564 9.05340958 18.88899803 C6.59035097 18.89880644 4.12761469 18.8959165 1.66455078 18.88989258 C0.93918121 18.89551208 0.21381165 18.90113159 -0.53353882 18.90692139 C-4.51428338 18.88220935 -7.68280349 18.57916264 -11.19921875 16.64697266 C-13.31134379 13.4787851 -13.53078339 11.51478014 -13.7578125 7.77978516 C-11.9408114 0.84214458 -6.24298037 -0.08318015 0 0 Z " fill="#000000" transform="translate(158.19921875,323.35302734375)"/>
<path d="M0 0 C0.8119986 -0.0071553 1.62399719 -0.01431061 2.46060181 -0.02168274 C5.13707226 -0.03855225 7.81186351 -0.01917846 10.48828125 0.00219727 C12.35245909 0.0013684 14.21663686 -0.00109164 16.08081055 -0.00511169 C19.98476196 -0.00796849 23.88813928 0.00671985 27.79199219 0.03417969 C32.79247563 0.06826233 37.79193263 0.06224318 42.79246521 0.04351711 C46.64099663 0.03294115 50.4892898 0.04189035 54.33779907 0.05690193 C56.18135877 0.06207983 58.02494338 0.0616067 59.86849976 0.05535698 C62.44673024 0.04989751 65.02349868 0.07030215 67.6015625 0.09765625 C68.36119293 0.09113037 69.12082336 0.08460449 69.9034729 0.07788086 C73.57474854 0.14400852 75.64832437 0.53394871 78.77392578 2.52577209 C80.80078125 4.63110352 80.80078125 4.63110352 81.4296875 6.84985352 C81.25101096 12.98791822 81.25101096 12.98791822 79.05078125 16.13110352 C74.72168428 19.01716816 70.33181216 18.77961389 65.26586914 18.77636719 C64.13587242 18.78140511 64.13587242 18.78140511 62.98304749 18.7865448 C60.49649398 18.79603208 58.01000797 18.79799671 55.5234375 18.79907227 C53.79235303 18.80228609 52.06126883 18.80565026 50.33018494 18.80915833 C46.70294566 18.81514381 43.07573019 18.81699879 39.44848633 18.81640625 C34.80359487 18.81630459 30.15885614 18.82996324 25.51400089 18.84717846 C21.93919678 18.85830288 18.36442956 18.86032533 14.78960991 18.85979652 C13.07721873 18.86097572 11.36482658 18.86539413 9.65245247 18.87312889 C7.25655568 18.88293892 4.86099015 18.88004695 2.46508789 18.87402344 C1.75999084 18.87964294 1.0548938 18.88526245 0.32843018 18.89105225 C-4.46228753 18.8604853 -7.95361817 18.02492457 -12.01171875 15.50610352 C-13.5849712 13.02202069 -13.65685838 10.65626142 -13.79296875 7.76391602 C-11.86709651 0.8459802 -6.29141402 -0.09683718 0 0 Z " fill="#000000" transform="translate(158.19921875,400.368896484375)"/>
<path d="M0 0 C2.99028679 1.99352453 4.57809415 3.40255495 5.51171875 6.9375 C5.70217031 9.17213162 5.60837059 10.83984357 5 13 C2.43759196 15.75951635 0.00688737 17.39335485 -3.19140625 19.3203125 C-11.21879909 24.29159131 -15.74219497 30.55376377 -18.48828125 39.6015625 C-19.2606876 43.22184873 -19.43873045 46.85596478 -19.69140625 50.54296875 C-20.21787343 54.73471374 -22.09778863 57.09778863 -25 60 C-31.95353687 60.79794685 -31.95353687 60.79794685 -35.73046875 57.91796875 C-39.81768127 52.66298123 -38.57725834 46.31777186 -38 40 C-35.98289012 27.2855943 -29.67576627 14.99113132 -19.47265625 7.02734375 C-7.63696057 -1.43665595 -7.63696057 -1.43665595 0 0 Z " fill="#000000" transform="translate(328,307)"/>
<path d="M0 0 C0.7115625 -0.01998047 1.423125 -0.03996094 2.15625 -0.06054688 C5.62532823 -0.05731079 7.62544661 0.15943156 10.44140625 2.25 C12.64245591 5.3391925 12.93389939 7.66976539 13 11.4375 C11.80314094 14.27216619 10.87148273 15.86844963 8.2890625 17.5546875 C5.29749532 18.70843184 2.76394819 18.73889671 -0.4375 18.75 C-2.10619141 18.77513672 -2.10619141 18.77513672 -3.80859375 18.80078125 C-7.35111223 18.39753251 -9.19658012 17.61291364 -12 15.4375 C-13.5402467 11.82126861 -14.25271313 9.54943778 -13.375 5.6875 C-10.04181166 0.2331918 -6.03306583 -0.06011207 0 0 Z " fill="#000000" transform="translate(107,67.5625)"/>
</svg>
